<svg version="1.1" xmlns="http://www.w3.org/2000/svg" viewBox="0 0 3718.297619047616 2243.333333333332" width="3718.297619047616" height="2243.333333333332">
  <!-- svg-source:excalidraw -->
  
  <defs>
    <style class="style-fonts">
      @font-face {
        font-family: "Virgil";
        src: url("https://excalidraw.com/Virgil.woff2");
      }
      @font-face {
        font-family: "Cascadia";
        src: url("https://excalidraw.com/Cascadia.woff2");
      }
      @font-face {
        font-family: "Assistant";
        src: url("https://excalidraw.com/Assistant-Regular.woff2");
      }
    </style>
    
  </defs>
  <rect x="0" y="0" width="3718.297619047616" height="2243.333333333332" fill="#ffffff"></rect><g stroke-linecap="round" transform="translate(614.9642857142846 173.33333333333348) rotate(0 1128.3333333333326 1029.9999999999993)"><path d="M32 0 C624.28 -4.29, 1217.47 -4.08, 2224.67 0 M2224.67 0 C2247.56 1.98, 2255.75 12.05, 2256.67 32 M2256.67 32 C2250.49 689.81, 2250.26 1349.55, 2256.67 2028 M2256.67 2028 C2255.91 2050.05, 2244.38 2061.26, 2224.67 2060 M2224.67 2060 C1600.08 2056.88, 975.25 2056.57, 32 2060 M32 2060 C9.53 2061.29, 1.05 2050.12, 0 2028 M0 2028 C-0.77 1529.43, -0.95 1032.71, 0 32 M0 32 C-0.45 11.64, 9.21 1.14, 32 0" stroke="#1e1e1e" stroke-width="4.5" fill="none" stroke-dasharray="8 12"></path></g><g stroke-linecap="round" transform="translate(812.6190476190463 388.9523809523804) rotate(0 187.8571428571429 184.28571428571428)"><path d="M67.57 41.51 C67.57 41.51, 67.57 41.51, 67.57 41.51 M67.57 41.51 C67.57 41.51, 67.57 41.51, 67.57 41.51 M14.87 128.41 C32.15 103.22, 51.44 83.21, 106.5 17.64 M12.41 131.66 C51.73 87.28, 87.68 43.55, 109.1 17.95 M4.52 156.79 C38.56 125.81, 72.12 86.45, 123.49 22.81 M6.4 159.54 C31.19 130.52, 60.4 99.7, 127.09 21.39 M7.02 184.18 C65.82 119.55, 125.09 49.74, 168.62 -1.68 M8.21 184 C54.95 124.63, 107.93 65.61, 166.92 2.31 M9.83 210.37 C62.91 144.75, 112.87 83.68, 185.35 2.26 M7.51 206.17 C47.41 162.09, 87.87 116.1, 184.9 2 M6.36 233.39 C57.75 168.75, 108.88 112.89, 204.25 4.32 M7.35 231.77 C58.2 168.65, 110.2 107.85, 204.94 4.04 M15.96 246.99 C81.95 171.81, 153.74 89.48, 225.83 8.08 M14.41 249.81 C54.88 196.32, 96.46 147.92, 225.45 6.1 M21.75 266.85 C102.87 166.49, 189.23 71.24, 240.78 13 M22.53 264.68 C81.36 200.59, 139.33 131.84, 242.59 12.42 M31.27 280.72 C111.2 185.49, 197.7 88.28, 259.78 14.32 M29.08 279.47 C122.89 181.57, 209.98 78.2, 258.46 16.08 M39.12 293.99 C92.08 232.61, 143.81 174.34, 275.13 19.93 M39.42 292.07 C117.26 203.64, 193.74 113.13, 277.08 20.97 M51.4 306.17 C128.87 212.72, 209.97 116.42, 288.98 30.1 M48.18 305.91 C109.77 240.56, 165.42 174.57, 288.36 29.22 M59.72 316.94 C150.83 218.3, 234.7 115.93, 301.13 39.12 M60.14 320.23 C152.9 210.12, 246.31 100.99, 301.61 41 M72.05 332.33 C144.31 239.23, 223.47 149.54, 317.05 49.7 M69.89 330.56 C160.01 228.88, 248.1 130.62, 316.04 49.59 M85.95 338.12 C148 263.16, 216.17 184.07, 327.53 60.16 M85.34 339.05 C166.63 243.94, 252.11 145.91, 327.07 59.54 M96.6 347.53 C175.39 259.95, 248.46 174.15, 337.7 70.68 M98.05 346.87 C193.35 241.9, 285.05 135.12, 338.7 70.8 M111.23 358.39 C190.16 270.36, 268.93 184.17, 348.54 82.58 M112.75 355.79 C167.98 295.14, 218.62 232.42, 349.01 84.37 M129.8 362.73 C175.3 303.38, 227.96 246.88, 358.7 99.47 M127.23 362.11 C205.56 275.15, 282.44 188.15, 357.51 98.29 M144.55 364.87 C213.58 290.06, 283.85 208.66, 365.47 116.07 M145.64 367.26 C187.51 313.99, 235.43 262.25, 365.65 113.15 M161.35 371.26 C234.77 290.9, 305.63 211.23, 370.58 128.05 M162.74 373.45 C207.97 316.65, 253.32 264.47, 372.8 130.13 M182.23 372.01 C256.43 287.57, 331.4 200.78, 379.56 147.85 M183.11 373.72 C224.17 322.48, 266.68 275.48, 379.28 148.06 M204.17 371.59 C240.48 336.88, 277 290.73, 380.08 165.67 M203.68 373.65 C246.88 326.11, 289.67 277.61, 379.76 169.15 M218.61 378.71 C265.8 327.36, 311.39 274.09, 380.76 197.5 M219.83 377.68 C273.29 315.05, 325.17 254.7, 378.58 193.54 M262.08 352.1 C306.21 305.52, 343.91 259.54, 370.91 223.29 M262.21 352.81 C287 325.56, 310.58 295.02, 375.05 226.59 M309.85 322.74 C328.87 302.49, 350.95 274.87, 374.89 252.4 M306.34 324.83 C329.21 298.55, 355.57 272.12, 373.79 249.1" stroke="#a5d8ff" stroke-width="2" fill="none"></path><path d="M271.96 18.29 C288.73 23.18, 303.1 36.53, 316.08 48.34 C329.07 60.15, 341 74.13, 349.88 89.15 C358.76 104.16, 365.04 121.46, 369.35 138.42 C373.67 155.38, 376.39 173.66, 375.76 190.9 C375.13 208.14, 371.14 225.58, 365.56 241.88 C359.98 258.18, 352.16 274.63, 342.27 288.69 C332.37 302.76, 319.55 315.62, 306.18 326.28 C292.82 336.94, 278.32 345.64, 262.09 352.65 C245.86 359.67, 226.7 366.17, 208.79 368.37 C190.87 370.57, 172.26 369.13, 154.62 365.85 C136.98 362.58, 118.79 356.21, 102.96 348.72 C87.13 341.23, 72.4 332.73, 59.65 320.9 C46.91 309.08, 35.64 292.74, 26.5 277.78 C17.36 262.81, 9.06 247.41, 4.79 231.12 C0.52 214.82, 0.03 197.24, 0.88 180.03 C1.73 162.82, 4.46 144.37, 9.88 127.85 C15.31 111.33, 23.82 95.32, 33.43 80.93 C43.04 66.55, 53.68 52.58, 67.54 41.55 C81.41 30.52, 100.3 21.45, 116.63 14.74 C132.95 8.02, 148.02 2.95, 165.49 1.26 C182.97 -0.44, 193.95 -6.24, 221.47 4.58 C249 15.4, 306.81 44.74, 330.65 66.16 C354.49 87.58, 366.86 131.41, 364.53 133.11 M82.23 29.61 C94.02 17.78, 113.89 13.16, 131.59 8.28 C149.29 3.4, 170.99 0.11, 188.44 0.34 C205.89 0.57, 219.96 5.45, 236.3 9.66 C252.63 13.87, 270.98 16.41, 286.44 25.6 C301.9 34.78, 316.91 51.04, 329.07 64.75 C341.22 78.45, 352.45 93.02, 359.38 107.83 C366.31 122.64, 368.18 136.59, 370.64 153.6 C373.09 170.62, 375.56 192.56, 374.13 209.9 C372.7 227.24, 368.85 242.31, 362.05 257.66 C355.25 273, 344.95 288.88, 333.31 301.96 C321.66 315.05, 307.08 326.02, 292.18 336.15 C277.28 346.28, 261.41 357.2, 243.93 362.77 C226.45 368.33, 205.62 369.63, 187.3 369.54 C168.98 369.45, 150.37 367.09, 134.02 362.24 C117.67 357.4, 103.73 349.79, 89.18 340.46 C74.64 331.12, 58.62 319.03, 46.73 306.25 C34.85 293.46, 25.23 279.84, 17.88 263.74 C10.54 247.64, 5.56 226.49, 2.65 209.63 C-0.25 192.77, -2.06 178.92, 0.46 162.6 C2.98 146.27, 10.7 128.17, 17.78 111.69 C24.87 95.22, 31.91 77.74, 42.95 63.74 C53.99 49.74, 76.95 32.75, 84.01 27.68 C91.08 22.62, 83.59 30.14, 85.34 33.35" stroke="#1e1e1e" stroke-width="4" fill="none"></path></g><g transform="translate(890.9491753011671 528.4284169908594) rotate(0 109.69195556640625 45)"><text x="109.69195556640625" y="31.536" font-family="Virgil, Segoe UI Emoji" font-size="36px" fill="#1e1e1e" text-anchor="middle" style="white-space: pre;" direction="ltr" dominant-baseline="alphabetic">Auth service</text><text x="109.69195556640625" y="76.536" font-family="Virgil, Segoe UI Emoji" font-size="36px" fill="#1e1e1e" text-anchor="middle" style="white-space: pre;" direction="ltr" dominant-baseline="alphabetic">(GO lang)</text></g><g stroke-linecap="round" transform="translate(10 1012.9761904761901) rotate(0 235.71428571428578 204.2857142857143)"><path d="M295 51.25 C333.51 85.2, 361.59 114.66, 412.43 153.75 C473.14 201.9, 472.7 202.28, 412.43 256.25 C386.57 279.72, 365.26 306.52, 295 357.32 C234.8 406.53, 231.59 404.07, 177 357.32 C135.25 321.89, 82.84 274.05, 59 256.25 C-0.3 208.85, -4.32 207.89, 59 153.75 C85.41 123.63, 121.82 100, 177 51.25 C236.36 5.29, 237.52 -4.87, 295 51.25" stroke="none" stroke-width="0" fill="#ffec99"></path><path d="M295 51.25 C332.22 84.31, 361.05 116.09, 412.43 153.75 M295 51.25 C317.28 73.93, 345.17 93.02, 412.43 153.75 M412.43 153.75 C473.19 207.94, 467.65 204.78, 412.43 256.25 M412.43 153.75 C469.64 203.35, 475.45 207.13, 412.43 256.25 M412.43 256.25 C378.25 291.89, 337.14 322.43, 295 357.32 M412.43 256.25 C384.95 283.03, 353.72 311.03, 295 357.32 M295 357.32 C233.01 406, 234.78 406.21, 177 357.32 M295 357.32 C238.96 409.91, 238.57 404.18, 177 357.32 M177 357.32 C137.35 322.41, 103.2 296.68, 59 256.25 M177 357.32 C135.64 323.14, 95.9 285.69, 59 256.25 M59 256.25 C-2.97 208.52, -0.06 204.07, 59 153.75 M59 256.25 C-1.28 207.69, 2.2 207.01, 59 153.75 M59 153.75 C78.31 131.18, 104.47 108.91, 177 51.25 M59 153.75 C81.58 133.77, 105.31 110.8, 177 51.25 M177 51.25 C238.12 1.27, 235.08 1.96, 295 51.25 M177 51.25 C234.86 -1.51, 239.99 -1.41, 295 51.25" stroke="#1e1e1e" stroke-width="4" fill="none"></path></g><g transform="translate(159.29516928536555 1149.6190476190473) rotate(0 86.56197357177734 67.5)"><text x="86.56197357177734" y="31.536" font-family="Virgil, Segoe UI Emoji" font-size="36px" fill="#1e1e1e" text-anchor="middle" style="white-space: pre;" direction="ltr" dominant-baseline="alphabetic">API </text><text x="86.56197357177734" y="76.536" font-family="Virgil, Segoe UI Emoji" font-size="36px" fill="#1e1e1e" text-anchor="middle" style="white-space: pre;" direction="ltr" dominant-baseline="alphabetic">Gateway</text><text x="86.56197357177734" y="121.536" font-family="Virgil, Segoe UI Emoji" font-size="36px" fill="#1e1e1e" text-anchor="middle" style="white-space: pre;" direction="ltr" dominant-baseline="alphabetic">(Node JS)</text></g><g stroke-linecap="round" transform="translate(742.8571428571411 1085.142857142856) rotate(0 187.857142857143 184.28571428571428)"><path d="M42.98 69.16 C42.98 69.16, 42.98 69.16, 42.98 69.16 M42.98 69.16 C42.98 69.16, 42.98 69.16, 42.98 69.16 M12.19 124.02 C41.41 91.64, 69.53 61.2, 109.1 18.18 M14.87 129.19 C51.6 85.53, 86.36 43.94, 104.34 22.34 M-0.12 168.31 C36.98 123.82, 80.29 78.35, 141.4 6.31 M1.24 163.18 C51.05 110.12, 95.9 59.08, 137.44 8.48 M2.53 186.32 C54.06 137.89, 97.21 85.79, 166.77 0.54 M3.2 187.8 C54.15 125.94, 108.4 66.55, 165.15 1.66 M3.61 213.81 C41.98 167.82, 80.81 123.35, 189.22 -1.87 M1.91 213.68 C64.97 141.41, 128.57 70.65, 187.58 -0.19 M5.42 230.66 C53.05 175.64, 100.98 121.18, 208.85 4.22 M6.41 232.87 C63.02 171.42, 114.97 107.3, 205.56 3.04 M15.84 247.38 C79.86 171.78, 146.27 93.58, 226.2 7.06 M11.96 248.62 C65.96 189.32, 116.09 129.39, 224.06 5.84 M19.56 268.84 C90.82 176.32, 170.61 88.67, 240.87 9.36 M18.04 266.72 C80.67 197.93, 140.33 126.25, 243.48 10.61 M26.65 281.41 C108.35 192.59, 184.76 106.78, 259.19 16.04 M29.53 281.49 C113.56 178.95, 200.08 78.78, 258.01 15.97 M40.11 293.91 C127.21 196.89, 211.44 96.21, 274.52 21.37 M37.57 292.49 C110.23 211.93, 182.39 130.98, 274.18 22.83 M49.16 305.78 C125.54 212.67, 204.86 122.75, 286.02 31.66 M49.5 307.43 C131.59 208.12, 216.64 111.24, 287.19 29.93 M62.69 318.17 C127.3 246.17, 188.18 171.2, 303.38 42.95 M60.81 316.54 C148.71 216.23, 235.62 116.3, 300.83 40.36 M72.33 325.88 C158.13 228.5, 246.75 128.29, 315.9 50.39 M73.08 325.26 C150.58 235.21, 230.31 143.02, 313.95 49.83 M86.8 335.28 C145.58 271.04, 205.37 198.34, 325.8 59.7 M85.7 336.45 C175.04 233.51, 267.22 129.27, 327.54 58.8 M101.12 344.2 C191.9 239.65, 283.18 132.77, 334.43 74.29 M101.46 343.25 C185.17 240.56, 272.19 140.46, 336.22 73.76 M117.68 350.01 C173 293.02, 223.3 227.24, 345.91 84.39 M115.09 351.49 C185.2 268.83, 255.52 189.22, 345.47 87.09 M132.19 357.3 C213.43 267.21, 290.91 174.19, 355.61 98.83 M131.12 357.53 C201.38 273.59, 271.62 192.92, 355.66 100.05 M146.48 363.26 C195.51 311.6, 242.45 259.59, 358.87 119.48 M148.74 363.53 C197.76 298.63, 249.8 240.54, 361.96 118.3 M167.09 363.68 C230.39 296.21, 287.83 220.33, 366.17 133.9 M165.9 366.18 C222.3 300.53, 279.13 234.74, 365.94 137.03 M184.92 366.83 C241.94 299.44, 303.12 226.37, 371.8 152.31 M184.69 368.93 C242.6 303.17, 300.49 236.48, 370.97 152.49 M206.8 370.99 C251.18 312.81, 298.91 257.88, 369.22 180.13 M208.23 368.18 C262.84 296.27, 324.35 229.72, 373.67 179 M234.7 366.49 C278.72 309.29, 325.69 257, 371.31 198.37 M232.71 361.94 C280.17 309.01, 329.45 250.2, 373.98 202.88 M264.75 351.05 C286.05 324.48, 305.58 302, 364.62 232.11 M262.36 351.19 C298.57 311.7, 333.91 271.8, 368.52 233.59 M313.48 325.7 C320.55 307.19, 333.47 296.34, 338.41 285.19 M309.97 324.32 C316.45 314.83, 326.43 303.21, 341.41 287.14" stroke="#a5d8ff" stroke-width="2" fill="none"></path><path d="M42.92 69.22 C51.23 54.34, 67.72 41.32, 82.34 31.36 C96.96 21.4, 114.13 14.74, 130.62 9.47 C147.1 4.19, 164.1 0.19, 181.25 -0.26 C198.39 -0.71, 216.38 2.18, 233.48 6.75 C250.59 11.32, 268.16 18.35, 283.88 27.16 C299.61 35.98, 315.97 47.37, 327.84 59.62 C339.71 71.87, 347.87 85.47, 355.1 100.66 C362.33 115.85, 368.24 133.13, 371.21 150.75 C374.18 168.38, 374.54 189.15, 372.91 206.41 C371.28 223.68, 367.96 238.81, 361.43 254.32 C354.89 269.83, 344.69 285.97, 333.69 299.48 C322.68 312.99, 309.67 325.28, 295.39 335.38 C281.12 345.47, 264.97 354.26, 248.05 360.07 C231.13 365.89, 212.1 370.07, 193.87 370.27 C175.65 370.46, 155.54 366.16, 138.69 361.24 C121.84 356.32, 107.6 349.49, 92.76 340.74 C77.91 331.99, 61.92 321.02, 49.61 308.76 C37.31 296.51, 26.96 282.75, 18.93 267.21 C10.91 251.67, 4.28 232.69, 1.45 215.5 C-1.38 198.32, -0.53 181.02, 1.94 164.11 C4.42 147.19, -1.09 138.72, 16.31 114.01 C33.72 89.3, 77.3 34.1, 106.36 15.84 C135.42 -2.43, 189.34 1.5, 190.67 4.42 M57 53.88 C66.56 40.51, 84.53 30.86, 100.8 22.51 C117.06 14.15, 137.54 7.6, 154.58 3.74 C171.63 -0.12, 185.73 -2.23, 203.09 -0.65 C220.44 0.93, 242.29 6.26, 258.73 13.24 C275.17 20.21, 287.66 30.78, 301.72 41.21 C315.78 51.64, 332.59 61.63, 343.11 75.82 C353.62 90, 359.23 109.67, 364.79 126.33 C370.36 142.99, 376.03 159.33, 376.52 175.77 C377 192.21, 371.74 208.64, 367.7 224.96 C363.67 241.27, 360.18 258.37, 352.29 273.68 C344.39 288.98, 332.94 304.18, 320.36 316.78 C307.78 329.39, 293.07 341.68, 276.8 349.3 C260.53 356.91, 240.53 359.56, 222.74 362.46 C204.94 365.37, 187.71 367.53, 170.01 366.73 C152.31 365.93, 132.76 364.33, 116.55 357.65 C100.33 350.98, 86.02 337.48, 72.73 326.68 C59.44 315.88, 47.38 306.06, 36.79 292.85 C26.2 279.64, 15.63 264.34, 9.18 247.44 C2.74 230.54, -1.03 209.33, -1.89 191.44 C-2.74 173.54, -0.5 156.27, 4.06 140.07 C8.61 123.87, 16.88 109.08, 25.42 94.22 C33.96 79.35, 49.8 57.27, 55.31 50.86 C60.82 44.45, 55.42 53.05, 58.48 55.75" stroke="#1e1e1e" stroke-width="4" fill="none"></path></g><g transform="translate(847.3232492379918 1224.618893181335) rotate(0 83.55597686767567 45)"><text x="83.55597686767578" y="31.536" font-family="Virgil, Segoe UI Emoji" font-size="36px" fill="#1e1e1e" text-anchor="middle" style="white-space: pre;" direction="ltr" dominant-baseline="alphabetic">Shortener</text><text x="83.55597686767578" y="76.536" font-family="Virgil, Segoe UI Emoji" font-size="36px" fill="#1e1e1e" text-anchor="middle" style="white-space: pre;" direction="ltr" dominant-baseline="alphabetic">(Python)</text></g><g transform="translate(1216.5475987025666 360.31280053457533) rotate(0 491.6158447265625 247.5)"><text x="0" y="31.536" font-family="Virgil, Segoe UI Emoji" font-size="36px" fill="#1e1e1e" text-anchor="start" style="white-space: pre;" direction="ltr" dominant-baseline="alphabetic">Responsibilities:</text><text x="0" y="76.536" font-family="Virgil, Segoe UI Emoji" font-size="36px" fill="#1e1e1e" text-anchor="start" style="white-space: pre;" direction="ltr" dominant-baseline="alphabetic">- authenticate users using JSON web tokens</text><text x="0" y="121.536" font-family="Virgil, Segoe UI Emoji" font-size="36px" fill="#1e1e1e" text-anchor="start" style="white-space: pre;" direction="ltr" dominant-baseline="alphabetic">    * GET /validate</text><text x="0" y="166.536" font-family="Virgil, Segoe UI Emoji" font-size="36px" fill="#1e1e1e" text-anchor="start" style="white-space: pre;" direction="ltr" dominant-baseline="alphabetic">    * POST /login</text><text x="0" y="211.536" font-family="Virgil, Segoe UI Emoji" font-size="36px" fill="#1e1e1e" text-anchor="start" style="white-space: pre;" direction="ltr" dominant-baseline="alphabetic">    * POST /register</text><text x="0" y="256.536" font-family="Virgil, Segoe UI Emoji" font-size="36px" fill="#1e1e1e" text-anchor="start" style="white-space: pre;" direction="ltr" dominant-baseline="alphabetic">- generate API access tokens</text><text x="0" y="301.536" font-family="Virgil, Segoe UI Emoji" font-size="36px" fill="#1e1e1e" text-anchor="start" style="white-space: pre;" direction="ltr" dominant-baseline="alphabetic">    * GET /validate-token/{token}</text><text x="0" y="346.536" font-family="Virgil, Segoe UI Emoji" font-size="36px" fill="#1e1e1e" text-anchor="start" style="white-space: pre;" direction="ltr" dominant-baseline="alphabetic">    * POST /generate-token</text><text x="0" y="391.536" font-family="Virgil, Segoe UI Emoji" font-size="36px" fill="#1e1e1e" text-anchor="start" style="white-space: pre;" direction="ltr" dominant-baseline="alphabetic">    * PUT /discard-token/{token} - discard or delete?</text><text x="0" y="436.536" font-family="Virgil, Segoe UI Emoji" font-size="36px" fill="#1e1e1e" text-anchor="start" style="white-space: pre;" direction="ltr" dominant-baseline="alphabetic">    * PUT /replace-token/{token}</text><text x="0" y="481.536" font-family="Virgil, Segoe UI Emoji" font-size="36px" fill="#1e1e1e" text-anchor="start" style="white-space: pre;" direction="ltr" dominant-baseline="alphabetic"></text></g><g transform="translate(1204.3100295293898 1145.1466299265871) rotate(0 533.60986328125 157.5)"><text x="0" y="31.536" font-family="Virgil, Segoe UI Emoji" font-size="36px" fill="#1e1e1e" text-anchor="start" style="white-space: pre;" direction="ltr" dominant-baseline="alphabetic">Responsibilities:</text><text x="0" y="76.536" font-family="Virgil, Segoe UI Emoji" font-size="36px" fill="#1e1e1e" text-anchor="start" style="white-space: pre;" direction="ltr" dominant-baseline="alphabetic">- shorten a URL: takes a URL from an authenticated user</text><text x="0" y="121.536" font-family="Virgil, Segoe UI Emoji" font-size="36px" fill="#1e1e1e" text-anchor="start" style="white-space: pre;" direction="ltr" dominant-baseline="alphabetic">and generates a shortened one.</text><text x="0" y="166.536" font-family="Virgil, Segoe UI Emoji" font-size="36px" fill="#1e1e1e" text-anchor="start" style="white-space: pre;" direction="ltr" dominant-baseline="alphabetic">    * POST /shorten</text><text x="0" y="211.536" font-family="Virgil, Segoe UI Emoji" font-size="36px" fill="#1e1e1e" text-anchor="start" style="white-space: pre;" direction="ltr" dominant-baseline="alphabetic">- redirector</text><text x="0" y="256.536" font-family="Virgil, Segoe UI Emoji" font-size="36px" fill="#1e1e1e" text-anchor="start" style="white-space: pre;" direction="ltr" dominant-baseline="alphabetic">    * GET /{shorten-URL}</text><text x="0" y="301.536" font-family="Virgil, Segoe UI Emoji" font-size="36px" fill="#1e1e1e" text-anchor="start" style="white-space: pre;" direction="ltr" dominant-baseline="alphabetic"></text></g><g stroke-linecap="round" transform="translate(1073.8571428571408 1735.3095238095234) rotate(0 187.8571428571429 184.28571428571422)"><path d="M60.85 48.92 C60.85 48.92, 60.85 48.92, 60.85 48.92 M60.85 48.92 C60.85 48.92, 60.85 48.92, 60.85 48.92 M14.37 131.13 C35.05 104.34, 62.29 75.63, 106.9 19.29 M9.43 129.19 C39.34 98.47, 68.75 65.39, 107.29 20.98 M6.51 163.18 C55.8 107.35, 107.14 45.56, 141.69 8.34 M1.87 164.28 C51.18 108.46, 100.93 51.18, 138.24 7.31 M-3.72 192.13 C41.12 145, 83.98 97.59, 166.58 -1.12 M-0.1 193.73 C47.3 136.12, 95.57 81.33, 164.36 1.57 M4.75 214.06 C66.07 138.69, 129.06 65.63, 188.96 5.32 M3.28 213.37 C54.1 154.49, 106.98 93.71, 186.34 3.33 M8.84 235.42 C66.44 161.25, 126.59 87.33, 206.28 1.76 M6.46 233.84 C82.73 145.21, 160.58 57.36, 207.45 2.55 M15.64 247.8 C72.73 184.85, 130.09 119.83, 226.45 8.88 M13.35 250.97 C86.17 166.77, 160.5 83.01, 224.26 6.63 M23.31 263 C100.89 171.59, 179.03 82.23, 242.89 12.77 M23.25 265.45 C98.22 175.22, 180.39 83.72, 242.89 10.21 M28.39 277.15 C78.56 216.5, 131.88 157.59, 259.27 16.11 M29.57 279.91 C95.18 199.99, 162.7 121.63, 259.31 16.94 M40.92 291.27 C99.61 225.97, 158.38 158.36, 274.23 22.98 M39.51 291.97 C107.32 217.28, 174.56 138.69, 272.73 22.18 M50.05 303.24 C107.74 239.55, 169.7 167.48, 285.68 32.68 M49.57 304.18 C120.04 221.62, 191.94 137.76, 287.63 30.85 M62.08 315.11 C123.11 253.03, 177.37 185.15, 304.55 40.91 M61.98 316.24 C109.39 261.28, 157.33 203.67, 302.43 39.33 M71.78 329.13 C124.84 271.3, 177.7 211.76, 316.7 52.08 M71.55 328.23 C135.51 255.82, 196.66 184.83, 315.76 48.48 M87.26 337.08 C144.7 268.26, 205.6 198.96, 326.66 62.85 M86.82 337.73 C141.3 270.98, 195.96 206.87, 325.07 61.55 M100.6 343.84 C180.23 251.73, 260.72 163.46, 336.41 73.04 M100.77 345.31 C168.73 266.48, 237.97 188.3, 336.77 73.19 M111.34 352.16 C168.04 291.8, 222.37 232.08, 346.14 83.46 M113.29 354.67 C175.88 278.59, 239.45 205.15, 347.21 86.36 M131.54 361.14 C200.6 280.96, 264.86 210.59, 353.41 100.95 M131.01 357.54 C184.86 293.41, 242.26 229.24, 355.66 100.14 M146.52 364.42 C231.78 267.88, 317.1 170.8, 363.7 115.37 M147.74 363.93 C219.06 286.76, 286.95 208.93, 361.9 117.04 M168.13 367.22 C226.87 304.18, 287.32 234.13, 365.91 133.6 M166.13 368.55 C212.85 318.17, 258.15 265.98, 367.8 135.82 M186.31 369.61 C253.13 289.06, 320.67 212.08, 371.42 155.93 M186.17 367.95 C248.35 296.61, 312.1 227.11, 372.51 155.53 M210.36 369.07 C274.11 288.39, 338.56 210.31, 373.46 175.07 M210.15 366.95 C245.15 326.15, 282.83 281.36, 374.9 173.61 M237.32 360.1 C273.24 315.89, 311.06 276.01, 375.69 200.41 M234.91 361.84 C282.92 304.59, 330.29 249.46, 373.4 200.82 M261.96 354.58 C283.61 325.12, 305.23 303.45, 368.4 227.54 M260.94 353.87 C295.41 316.9, 330.1 278.58, 370.42 230.54 M305.86 321.87 C316.15 311.32, 331.29 305.65, 349.57 274.76 M309.8 321.83 C326.02 304.13, 340.75 283.54, 351.12 275.6" stroke="#a5d8ff" stroke-width="2" fill="none"></path><path d="M155.8 1.06 C171.72 -4.66, 191.47 0.4, 208.65 2.82 C225.84 5.25, 243.01 9.46, 258.9 15.62 C274.8 21.78, 290.02 29.35, 304.01 39.78 C318.01 50.2, 332.66 63.77, 342.89 78.19 C353.11 92.62, 359.9 109.99, 365.35 126.34 C370.8 142.69, 374.9 158.87, 375.58 176.31 C376.27 193.74, 373.75 213.67, 369.45 230.95 C365.16 248.23, 358.78 265.45, 349.79 280.01 C340.79 294.57, 328.35 306.66, 315.49 318.29 C302.63 329.92, 288.64 341.88, 272.62 349.79 C256.6 357.7, 236.65 362.6, 219.36 365.76 C202.07 368.92, 186.41 370.62, 168.9 368.73 C151.39 366.84, 130.56 361.29, 114.29 354.44 C98.02 347.59, 84.47 338.73, 71.29 327.63 C58.12 316.52, 45.8 302.26, 35.23 287.8 C24.65 273.33, 14 256.71, 7.84 240.83 C1.68 224.96, -1.43 209.32, -1.73 192.56 C-2.02 175.8, 1.4 157.33, 6.09 140.25 C10.77 123.18, 17.22 105.37, 26.38 90.11 C35.53 74.86, 48.08 60.32, 61.01 48.73 C73.94 37.15, 79.86 28.49, 103.96 20.59 C128.05 12.69, 180.98 2.12, 205.59 1.35 C230.2 0.59, 251.95 13.13, 251.64 16 M173.39 2.44 C189.4 -1.74, 205.14 -1.18, 222.11 1.91 C239.08 5, 258.84 12.98, 275.21 20.98 C291.58 28.98, 307.38 37.67, 320.33 49.93 C333.28 62.18, 344.09 78.67, 352.89 94.51 C361.69 110.34, 369.6 128.03, 373.12 144.92 C376.64 161.82, 375.83 179.08, 373.99 195.88 C372.14 212.68, 367.85 229.61, 362.05 245.7 C356.25 261.78, 348.65 277.88, 339.19 292.41 C329.73 306.95, 318.86 322.82, 305.28 332.93 C291.71 343.04, 274.29 347.12, 257.73 353.07 C241.18 359.02, 223.44 366.26, 205.96 368.63 C188.47 371.01, 169.98 370.49, 152.81 367.32 C135.63 364.16, 119.04 357.76, 102.93 349.63 C86.82 341.5, 69.66 331.44, 56.15 318.56 C42.63 305.68, 30.14 288.11, 21.85 272.35 C13.55 256.59, 10.42 240.09, 6.39 224 C2.36 207.9, -3.37 192.99, -2.33 175.79 C-1.29 158.58, 6.57 137.21, 12.63 120.77 C18.69 104.34, 24.43 91.33, 34.02 77.18 C43.61 63.03, 55.52 46.61, 70.15 35.88 C84.77 25.16, 105.12 18.38, 121.76 12.85 C138.41 7.32, 161.25 4.5, 170.04 2.7 C178.83 0.9, 174.46 -0.4, 174.51 2.05" stroke="#1e1e1e" stroke-width="4" fill="none"></path></g><g transform="translate(1152.6192697458046 1852.2855598480023) rotate(0 109.25995635986328 67.5)"><text x="109.25995635986328" y="31.536" font-family="Virgil, Segoe UI Emoji" font-size="36px" fill="#1e1e1e" text-anchor="middle" style="white-space: pre;" direction="ltr" dominant-baseline="alphabetic">Analytics &amp; </text><text x="109.25995635986328" y="76.536" font-family="Virgil, Segoe UI Emoji" font-size="36px" fill="#1e1e1e" text-anchor="middle" style="white-space: pre;" direction="ltr" dominant-baseline="alphabetic">reporter </text><text x="109.25995635986328" y="121.536" font-family="Virgil, Segoe UI Emoji" font-size="36px" fill="#1e1e1e" text-anchor="middle" style="white-space: pre;" direction="ltr" dominant-baseline="alphabetic">(Node JS)</text></g><g transform="translate(1515.294974190847 1705.5697800363755) rotate(0 290.5559387207031 202.5)"><text x="0" y="31.536" font-family="Virgil, Segoe UI Emoji" font-size="36px" fill="#1e1e1e" text-anchor="start" style="white-space: pre;" direction="ltr" dominant-baseline="alphabetic">Responsibilities:</text><text x="0" y="76.536" font-family="Virgil, Segoe UI Emoji" font-size="36px" fill="#1e1e1e" text-anchor="start" style="white-space: pre;" direction="ltr" dominant-baseline="alphabetic">- generate reports:</text><text x="0" y="121.536" font-family="Virgil, Segoe UI Emoji" font-size="36px" fill="#1e1e1e" text-anchor="start" style="white-space: pre;" direction="ltr" dominant-baseline="alphabetic">    - Visits Count</text><text x="0" y="166.536" font-family="Virgil, Segoe UI Emoji" font-size="36px" fill="#1e1e1e" text-anchor="start" style="white-space: pre;" direction="ltr" dominant-baseline="alphabetic">    - Traffic Over Time</text><text x="0" y="211.536" font-family="Virgil, Segoe UI Emoji" font-size="36px" fill="#1e1e1e" text-anchor="start" style="white-space: pre;" direction="ltr" dominant-baseline="alphabetic">    - Device Breakdown</text><text x="0" y="256.536" font-family="Virgil, Segoe UI Emoji" font-size="36px" fill="#1e1e1e" text-anchor="start" style="white-space: pre;" direction="ltr" dominant-baseline="alphabetic">    - Browser Breakdown</text><text x="0" y="301.536" font-family="Virgil, Segoe UI Emoji" font-size="36px" fill="#1e1e1e" text-anchor="start" style="white-space: pre;" direction="ltr" dominant-baseline="alphabetic">    - Visitor Location Breakdown</text><text x="0" y="346.536" font-family="Virgil, Segoe UI Emoji" font-size="36px" fill="#1e1e1e" text-anchor="start" style="white-space: pre;" direction="ltr" dominant-baseline="alphabetic">- routes:</text><text x="0" y="391.536" font-family="Virgil, Segoe UI Emoji" font-size="36px" fill="#1e1e1e" text-anchor="start" style="white-space: pre;" direction="ltr" dominant-baseline="alphabetic">    * GET /{url_id}</text></g><g stroke-linecap="round"><g transform="translate(2284.885011298217 1283.2903107891048) rotate(0 422.68192286682483 89.09618348914012)"><path d="M-1.62 1.54 C139.17 30.55, 705.2 145.61, 846.99 174.55 M2.69 -0.09 C142.9 29.37, 703.75 149.93, 844.7 178.29" stroke="#1e1e1e" stroke-width="4" fill="none"></path></g><g transform="translate(2284.885011298217 1283.2903107891048) rotate(0 422.68192286682483 89.09618348914012)"><path d="M821.05 181.79 C829.5 182.07, 839.34 177.6, 845.57 180.13 M819.92 182.73 C824.32 180.95, 830.93 179.74, 844.1 177.65" stroke="#1e1e1e" stroke-width="4" fill="none"></path></g><g transform="translate(2284.885011298217 1283.2903107891048) rotate(0 422.68192286682483 89.09618348914012)"><path d="M824.55 165.05 C831.7 171.68, 840.21 173.57, 845.57 180.13 M823.42 165.99 C827.05 167.66, 832.93 169.89, 844.1 177.65" stroke="#1e1e1e" stroke-width="4" fill="none"></path></g></g><mask></mask><g stroke-linecap="round"><g transform="translate(3129.297619047616 1594.3168131160533) rotate(0 -511.68280108435647 101.5396682430029)"><path d="M1.93 1.96 C-168.84 34.76, -852.15 166.77, -1023.81 199.49 M-0.47 0.56 C-171.56 34.94, -854.92 169.27, -1025.29 202.52" stroke="#1e1e1e" stroke-width="4" fill="none"></path></g><g transform="translate(3129.297619047616 1594.3168131160533) rotate(0 -511.68280108435647 101.5396682430029)"><path d="M-1002.48 190.6 C-1011.59 192.01, -1019.52 197.19, -1026.87 201.98 M-1003.42 189.44 C-1011.26 194.42, -1021.3 198.91, -1025.72 202.95" stroke="#1e1e1e" stroke-width="4" fill="none"></path></g><g transform="translate(3129.297619047616 1594.3168131160533) rotate(0 -511.68280108435647 101.5396682430029)"><path d="M-999.19 207.39 C-1009.55 203.29, -1018.56 202.94, -1026.87 201.98 M-1000.13 206.22 C-1009.2 204.78, -1020.5 202.85, -1025.72 202.95" stroke="#1e1e1e" stroke-width="4" fill="none"></path></g></g><mask></mask><g stroke-linecap="round"><g transform="translate(2218.054109119232 594.3111582858049) rotate(0 435.17670221117646 150.15163984052705)"><path d="M-2.34 0.67 C143.54 50.14, 726.99 249.09, 872.69 299.33 M1.58 -1.43 C147.32 49.53, 725.75 250.57, 870.43 301.73" stroke="#1e1e1e" stroke-width="4" fill="none"></path></g><g transform="translate(2218.054109119232 594.3111582858049) rotate(0 435.17670221117646 150.15163984052705)"><path d="M845.91 302 C849 301.59, 856.18 303.87, 871.87 302.4 M844.75 301.44 C851.75 301.45, 860.35 301.85, 869.73 301.81" stroke="#1e1e1e" stroke-width="4" fill="none"></path></g><g transform="translate(2218.054109119232 594.3111582858049) rotate(0 435.17670221117646 150.15163984052705)"><path d="M851.56 285.86 C853.62 288.75, 859.63 294.37, 871.87 302.4 M850.41 285.3 C855.79 289.98, 862.75 295.04, 869.73 301.81" stroke="#1e1e1e" stroke-width="4" fill="none"></path></g></g><mask></mask><g stroke-linecap="round"><g transform="translate(2295.1787225632434 1220.034382038644) rotate(0 406.8267252424114 -102.33218001527389)"><path d="M-1.01 -0.86 C134.84 -34.18, 678.76 -166.37, 814.66 -200.18 M3.64 -3.8 C139.19 -37.82, 677.79 -170.91, 812.63 -203.8" stroke="#1e1e1e" stroke-width="4" fill="none"></path></g><g transform="translate(2295.1787225632434 1220.034382038644) rotate(0 406.8267252424114 -102.33218001527389)"><path d="M791.24 -189.62 C799.6 -193.67, 802.99 -199.52, 813.45 -203.95 M792.23 -190.3 C800.38 -195.57, 807.16 -200.11, 813.01 -203.87" stroke="#1e1e1e" stroke-width="4" fill="none"></path></g><g transform="translate(2295.1787225632434 1220.034382038644) rotate(0 406.8267252424114 -102.33218001527389)"><path d="M787.16 -206.23 C796.67 -205.54, 801.22 -206.67, 813.45 -203.95 M788.15 -206.91 C797.97 -206.05, 806.26 -204.43, 813.01 -203.87" stroke="#1e1e1e" stroke-width="4" fill="none"></path></g></g><mask></mask><g stroke-linecap="round"><g transform="translate(67.5942245582869 656.5671170210887) rotate(89.01278997907718 256.7158589907658 30.281621116843297)" fill-rule="evenodd"><path d="M3.81 1.1 C65.86 0.87, 324.35 9.36, 375.87 -4.19 C427.39 -17.73, 287.32 -83.76, 312.91 -80.16 C338.51 -76.56, 517.83 -20.05, 529.43 17.42 C541.04 54.88, 402.61 133.89, 382.55 144.64 C362.5 155.39, 470.71 92.18, 409.1 81.92 C347.49 71.67, 81.75 96.64, 12.91 83.11 C-55.94 69.59, -1.52 14.95, -3.96 0.75" stroke="none" stroke-width="0" fill="#ffc9c9" fill-rule="evenodd"></path><path d="M0.12 0.22 C63.34 -0.58, 328.82 11.65, 380.75 -2.43 C432.68 -16.5, 286.13 -87.33, 311.69 -84.21 C337.25 -81.1, 521.98 -21.59, 534.12 16.26 C546.25 54.12, 405.77 132.89, 384.51 142.93 C363.24 152.96, 468.94 86.39, 406.52 76.46 C344.11 66.54, 78.04 96.51, 10.02 83.38 C-57.99 70.25, -0.28 11.49, -1.54 -2.3 M-3.26 -2.13 C59.51 -1.18, 326.72 14.81, 378.84 1.42 C430.95 -11.98, 283.26 -84.15, 309.4 -82.49 C335.55 -80.82, 522.46 -26.24, 535.73 11.42 C548.99 49.08, 411.3 131.82, 388.97 143.47 C366.65 155.13, 464.79 90.56, 401.77 81.36 C338.75 72.15, 77.19 101.09, 10.87 88.24 C-55.45 75.4, 5.67 19.37, 3.84 4.29" stroke="#1e1e1e" stroke-width="4" fill="none"></path></g></g><mask></mask><g transform="translate(187.46613379722476 619.9758963676104) rotate(89.01278997907718 112.95300229199233 25.34397702487459)"><text x="0" y="35.52211819806422" font-family="Virgil, Segoe UI Emoji" font-size="40.55036323979933px" fill="#1e1e1e" text-anchor="start" style="white-space: pre;" direction="ltr" dominant-baseline="alphabetic">Entry Point</text></g><g stroke-linecap="round"><g transform="translate(945.8912512681163 1083.8176680414717) rotate(0 0.3880679156968654 -164.76383320696738)"><path d="M1.35 2.15 C1.4 -52.38, 2.15 -272.32, 2.32 -327.2 M-1.36 0.85 C-1.98 -54.55, -0.81 -276.19, -0.6 -331.68" stroke="#1e1e1e" stroke-width="4" fill="none"></path></g><g transform="translate(945.8912512681163 1083.8176680414717) rotate(0 0.3880679156968654 -164.76383320696738)"><path d="M9.38 -309.05 C5.39 -317.74, 2.3 -326.17, -1.94 -330.24 M7.5 -309.14 C5.58 -313.67, 4.92 -318.27, 0.18 -332.11" stroke="#1e1e1e" stroke-width="4" fill="none"></path></g><g transform="translate(945.8912512681163 1083.8176680414717) rotate(0 0.3880679156968654 -164.76383320696738)"><path d="M-7.72 -309.12 C-5.34 -317.86, -2.07 -326.27, -1.94 -330.24 M-9.6 -309.21 C-7.82 -313.87, -4.78 -318.46, 0.18 -332.11" stroke="#1e1e1e" stroke-width="4" fill="none"></path></g></g><mask></mask><g stroke-linecap="round"><g transform="translate(1214.2394692595794 1714.5890509595806) rotate(0 -77.57569636269386 -478.6649192388779)"><path d="M-2.09 -2.13 C-27.36 -162.54, -129.37 -800.43, -154.36 -960.22 M1.98 2.89 C-23.5 -157.39, -131.28 -797.16, -157.13 -957.46" stroke="#1e1e1e" stroke-width="4" fill="none"></path></g><g transform="translate(1214.2394692595794 1714.5890509595806) rotate(0 -77.57569636269386 -478.6649192388779)"><path d="M-146.38 -936.37 C-148.66 -939.21, -151.58 -945.8, -156.2 -958.89 M-144.17 -935.52 C-148.45 -940.78, -152.19 -946.64, -156.63 -957.39" stroke="#1e1e1e" stroke-width="4" fill="none"></path></g><g transform="translate(1214.2394692595794 1714.5890509595806) rotate(0 -77.57569636269386 -478.6649192388779)"><path d="M-163.26 -933.58 C-162.15 -936.86, -161.66 -944.01, -156.2 -958.89 M-161.05 -932.73 C-160.69 -938.71, -159.81 -945.34, -156.63 -957.39" stroke="#1e1e1e" stroke-width="4" fill="none"></path></g></g><mask></mask><g stroke-linecap="round" transform="translate(3112.130952380951 867.9643765903301) rotate(0 187.64885496183206 105.11450381679388)"><path d="M7.86 8.16 C7.86 8.16, 7.86 8.16, 7.86 8.16 M7.86 8.16 C7.86 8.16, 7.86 8.16, 7.86 8.16 M8.78 31.49 C16.76 20.52, 17.12 15.05, 34.37 2.05 M8.78 31.49 C18.22 19.1, 29.85 7.37, 34.37 2.05 M8.39 56.32 C23.02 36.74, 48.25 15.63, 55.63 1.98 M8.39 56.32 C19.41 43.91, 28.27 31.45, 55.63 1.98 M8.66 80.4 C27.05 58.13, 46.74 40.05, 76.89 1.91 M8.66 80.4 C31.85 57.94, 52.94 34.76, 76.89 1.91 M8.27 105.24 C37.74 73.13, 69.77 36.51, 98.15 1.85 M8.27 105.24 C37.11 71.42, 63.94 42.14, 98.15 1.85 M8.54 129.32 C33.31 98.32, 61.98 67.7, 119.41 1.78 M8.54 129.32 C51.85 79.88, 94.16 28.71, 119.41 1.78 M8.15 154.16 C49.65 104.73, 102.99 46.29, 140.67 1.71 M8.15 154.16 C36.81 118.75, 67.18 86.1, 140.67 1.71 M4.48 182.77 C47.45 136.11, 86.81 86.85, 161.28 2.39 M4.48 182.77 C55.41 126.6, 102.75 68.7, 161.28 2.39 M10.65 200.06 C46.41 162.67, 79.88 119.9, 182.54 2.32 M10.65 200.06 C77.87 126.99, 139.28 54.15, 182.54 2.32 M20.76 212.82 C66.92 166.01, 110.68 115.34, 203.8 2.26 M20.76 212.82 C86.13 134.7, 154.26 57.1, 203.8 2.26 M38.74 216.52 C80.02 167.24, 123.25 119.03, 225.06 2.19 M38.74 216.52 C91.94 157.64, 142.31 99.12, 225.06 2.19 M60 216.45 C129.9 138.56, 206.68 54.54, 246.32 2.12 M60 216.45 C108.3 159.93, 154.5 107.52, 246.32 2.12 M81.26 216.39 C131.62 158.52, 182.18 97.85, 267.58 2.05 M81.26 216.39 C122.63 172.18, 162.59 123.84, 267.58 2.05 M102.52 216.32 C165.19 147.79, 230.33 74.17, 288.84 1.98 M102.52 216.32 C153.28 155.78, 203.36 95.79, 288.84 1.98 M123.78 216.25 C179.51 160.57, 230.74 97.17, 310.1 1.91 M123.78 216.25 C171.99 163.64, 220.08 107.47, 310.1 1.91 M145.04 216.18 C193.03 161.5, 234.41 109.82, 331.36 1.84 M145.04 216.18 C207.66 143.88, 267.79 69.89, 331.36 1.84 M166.3 216.11 C234.26 141.12, 304.12 62.24, 349.34 5.55 M166.3 216.11 C234.51 138.13, 302.05 61.85, 349.34 5.55 M187.56 216.04 C240.84 152.44, 293.72 93.16, 367.97 8.5 M187.56 216.04 C254.04 144.82, 316.89 72.67, 367.97 8.5 M208.82 215.97 C258.07 160.14, 304.89 105.68, 379.39 19.75 M208.82 215.97 C263.43 152.26, 320.1 89.3, 379.39 19.75 M230.08 215.9 C260.1 183.1, 296.14 145.81, 383.59 39.3 M230.08 215.9 C261.55 177.99, 298 136.97, 383.59 39.3 M250.68 216.59 C277.99 181.02, 301.39 150.11, 383.86 63.38 M250.68 216.59 C282.05 180.93, 310.53 149.97, 383.86 63.38 M271.94 216.52 C296.81 179.58, 329.6 149.49, 383.47 88.22 M271.94 216.52 C305.87 178.55, 339.68 139.93, 383.47 88.22 M293.2 216.45 C323.86 178.62, 359.06 144.28, 383.74 112.3 M293.2 216.45 C321.93 183.21, 350.96 150.68, 383.74 112.3 M314.46 216.38 C336.25 192.42, 359.29 160.09, 383.35 137.14 M314.46 216.38 C337.03 192.58, 355.23 170.96, 383.35 137.14 M335.72 216.31 C345.34 205.16, 358.67 183.75, 383.61 161.22 M335.72 216.31 C349.62 203.15, 357.71 189.15, 383.61 161.22" stroke="#b2f2bb" stroke-width="2" fill="none"></path><path d="M32 0 C130.36 -0.55, 223.88 -2.25, 343.3 0 M32 0 C154.11 5.51, 274.61 4.33, 343.3 0 M343.3 0 C364.28 2.04, 378.87 6.94, 375.3 32 M343.3 0 C362.08 -3.68, 373.9 8.28, 375.3 32 M375.3 32 C369.12 67.26, 374.9 106.54, 375.3 178.23 M375.3 32 C374.94 83.42, 375.06 139.42, 375.3 178.23 M375.3 178.23 C372.89 197.47, 368.28 208.19, 343.3 210.23 M375.3 178.23 C379.72 197.63, 365.16 210.31, 343.3 210.23 M343.3 210.23 C231.03 204.57, 121 204.74, 32 210.23 M343.3 210.23 C235.91 212.37, 129.92 214.46, 32 210.23 M32 210.23 C10.06 210.62, -2.12 196.9, 0 178.23 M32 210.23 C13.85 206.05, -3.75 195.8, 0 178.23 M0 178.23 C0.24 148.63, -0.01 113.4, 0 32 M0 178.23 C-0.33 124.89, 1.57 74.16, 0 32 M0 32 C2.37 14.19, 11.21 3.54, 32 0 M0 32 C3.1 6.4, 13.54 -1.6, 32 0" stroke="#1e1e1e" stroke-width="4" fill="none"></path></g><g stroke-linecap="round" transform="translate(3138.6042348236992 892.8804071246811) rotate(0 190.76335877862584 105.89312977099232)"><path d="M7.86 8.16 C7.86 8.16, 7.86 8.16, 7.86 8.16 M7.86 8.16 C7.86 8.16, 7.86 8.16, 7.86 8.16 M8.78 31.49 C14.8 23.28, 26.45 14.41, 34.37 2.05 M8.78 31.49 C15.6 23.43, 21.04 19.75, 34.37 2.05 M8.39 56.32 C14.1 43.96, 30.17 31.84, 55.63 1.98 M8.39 56.32 C20.28 42.12, 32.55 32.28, 55.63 1.98 M8.66 80.4 C33.15 50.21, 51.99 22.35, 76.89 1.91 M8.66 80.4 C28.46 61.28, 44.89 41.32, 76.89 1.91 M8.27 105.24 C34.84 70.79, 66.88 37.72, 98.15 1.85 M8.27 105.24 C33.79 72.34, 57.82 46.5, 98.15 1.85 M8.54 129.32 C48.79 83.73, 93.73 30.54, 119.41 1.78 M8.54 129.32 C41.6 88.62, 74.89 50.48, 119.41 1.78 M8.15 154.16 C38.2 122.26, 67.96 94.68, 140.67 1.71 M8.15 154.16 C51.48 102.19, 94.98 54.18, 140.67 1.71 M3.82 183.52 C51.4 133.89, 97.18 81.64, 161.28 2.39 M3.82 183.52 C45.92 132.91, 90.38 86.5, 161.28 2.39 M9.99 200.81 C64.59 133.96, 119.91 71.92, 182.54 2.32 M9.99 200.81 C47.53 161.22, 84.69 118.71, 182.54 2.32 M20.1 213.57 C57.69 171.61, 97.41 128.47, 203.8 2.26 M20.1 213.57 C70.32 156.74, 119.59 101.52, 203.8 2.26 M38.08 217.28 C108.71 131.61, 180.76 47.51, 225.06 2.19 M38.08 217.28 C81.42 165.81, 124.93 114.75, 225.06 2.19 M59.34 217.21 C108 153.07, 163.6 95.11, 246.32 2.12 M59.34 217.21 C116.71 149.99, 175.26 83.08, 246.32 2.12 M80.6 217.14 C124.88 161.69, 168.34 109.21, 267.58 2.05 M80.6 217.14 C132.09 157.58, 185.41 97.35, 267.58 2.05 M101.86 217.07 C170.84 141.11, 232.02 68.91, 288.84 1.98 M101.86 217.07 C150.94 162.54, 201.11 102.56, 288.84 1.98 M123.12 217 C162.75 175.23, 205.76 126.04, 310.1 1.91 M123.12 217 C178.71 151.72, 234.9 83.45, 310.1 1.91 M144.38 216.93 C200.01 151.35, 254.15 91.11, 331.36 1.84 M144.38 216.93 C198.39 150.78, 256.54 82.84, 331.36 1.84 M165.64 216.86 C232.81 136.54, 300.27 58.7, 351.96 2.53 M165.64 216.86 C205.56 168.5, 248.44 119.41, 351.96 2.53 M186.9 216.8 C231.75 162.42, 281.53 109.71, 370.6 5.48 M186.9 216.8 C226.64 170.5, 265.27 125.93, 370.6 5.48 M207.5 217.48 C246.75 172.69, 291.62 127.33, 382.02 16.73 M207.5 217.48 C249.86 172.31, 290.96 127.35, 382.02 16.73 M228.76 217.41 C291.6 146.67, 351.9 76.51, 386.22 36.28 M228.76 217.41 C281.84 161.17, 330.16 103.1, 386.22 36.28 M250.02 217.34 C291.16 175.26, 323.37 128.94, 386.49 60.36 M250.02 217.34 C290.54 176.6, 326.23 133.79, 386.49 60.36 M271.29 217.27 C315.34 165.91, 356.88 112.3, 386.1 85.2 M271.29 217.27 C309.06 170.43, 345.27 129.6, 386.1 85.2 M292.55 217.21 C312.61 189.14, 333.52 164.71, 386.36 109.28 M292.55 217.21 C327.81 174.73, 366.11 133.11, 386.36 109.28 M313.81 217.14 C339.8 192.72, 355.49 166.26, 386.63 133.36 M313.81 217.14 C336.68 189.69, 358.83 162.93, 386.63 133.36 M335.07 217.07 C346.67 200.43, 355.61 186.64, 386.24 158.2 M335.07 217.07 C354.59 192.94, 373.65 172.61, 386.24 158.2 M355.67 217.75 C363.12 206.55, 373.74 197.23, 385.85 183.04 M355.67 217.75 C368.05 205.41, 377.54 192.23, 385.85 183.04" stroke="#b2f2bb" stroke-width="2" fill="none"></path><path d="M32 0 C102.01 -2.22, 168.61 -0.35, 349.53 0 M32 0 C149.55 -2.37, 264.84 -2.13, 349.53 0 M349.53 0 C368.09 -1.61, 383.47 12.5, 381.53 32 M349.53 0 C366.35 -4.26, 378.53 14.48, 381.53 32 M381.53 32 C381.66 91.6, 380.74 147.31, 381.53 179.79 M381.53 32 C384.77 87.11, 384.94 137.55, 381.53 179.79 M381.53 179.79 C384.94 197.62, 373.16 210.14, 349.53 211.79 M381.53 179.79 C379.72 199.12, 368.41 209.38, 349.53 211.79 M349.53 211.79 C254.62 207.58, 154.88 207.72, 32 211.79 M349.53 211.79 C276.48 214.7, 201.65 212.51, 32 211.79 M32 211.79 C6.75 207.91, 2.83 197.36, 0 179.79 M32 211.79 C14.01 211.78, -2.2 205.5, 0 179.79 M0 179.79 C2.87 126.05, 0.03 81.41, 0 32 M0 179.79 C-0.66 144.77, 0.54 105.27, 0 32 M0 32 C1.5 11.27, 9.05 -0.81, 32 0 M0 32 C2.4 13.42, 7.73 -4.54, 32 0" stroke="#1e1e1e" stroke-width="4" fill="none"></path></g><g transform="translate(3175.290975257832 947.6666666666663) rotate(0 140.92062434443687 30.833333333333258)"><text x="0" y="43.21599999999989" font-family="Virgil, Segoe UI Emoji" font-size="49.33333333333321px" fill="#1e1e1e" text-anchor="start" style="white-space: pre;" direction="ltr" dominant-baseline="alphabetic">PostgreSQL</text></g><g stroke-linecap="round" transform="translate(3139.964285714283 1423.8155216284981) rotate(0 187.64885496183206 105.1145038167939)"><path d="M7.86 8.16 C7.86 8.16, 7.86 8.16, 7.86 8.16 M7.86 8.16 C7.86 8.16, 7.86 8.16, 7.86 8.16 M0.91 40.54 C8.97 33.54, 19.96 22.54, 36.34 -0.21 M0.91 40.54 C10.53 27.68, 17.19 20.02, 36.34 -0.21 M1.18 64.62 C19.85 48.87, 31.55 25.33, 57.6 -0.28 M1.18 64.62 C19.72 40.49, 41.13 19.07, 57.6 -0.28 M0.79 89.46 C30.65 53.96, 66.5 23.41, 78.2 0.41 M0.79 89.46 C31.19 53.29, 63.26 18.56, 78.2 0.41 M1.05 113.54 C37.33 68.21, 76.55 23.19, 99.46 0.34 M1.05 113.54 C32.05 78.93, 64.09 42.64, 99.46 0.34 M0.66 138.38 C36.81 103.59, 60.76 66.89, 120.72 0.27 M0.66 138.38 C42.44 91.23, 85.11 42.79, 120.72 0.27 M0.93 162.46 C44.77 110.85, 91.71 59.27, 141.98 0.2 M0.93 162.46 C51.48 102.01, 101.23 43.86, 141.98 0.2 M1.2 186.54 C59.88 121.9, 118.01 56.52, 163.24 0.13 M1.2 186.54 C55.43 125.47, 109.46 64.14, 163.24 0.13 M9.34 201.57 C61.5 138.85, 112.31 76.57, 184.5 0.06 M9.34 201.57 C81.86 119.93, 151.73 39.68, 184.5 0.06 M24.04 209.05 C71.05 156.73, 114.67 105.01, 205.76 -0.01 M24.04 209.05 C95.31 124.02, 167.49 40.53, 205.76 -0.01 M43.98 210.49 C102.19 148.07, 165.57 77.94, 227.02 -0.08 M43.98 210.49 C102.16 145.18, 162.41 75.89, 227.02 -0.08 M65.24 210.42 C136.36 127.11, 210.03 51.67, 248.28 -0.15 M65.24 210.42 C141.53 129.07, 211.76 46.13, 248.28 -0.15 M86.5 210.35 C139.13 156.68, 185.9 100.72, 269.54 -0.22 M86.5 210.35 C150.66 136.86, 217.3 59.78, 269.54 -0.22 M107.76 210.28 C156.15 153.27, 205.73 96.49, 290.8 -0.28 M107.76 210.28 C177.12 131.82, 246.51 54.66, 290.8 -0.28 M129.02 210.21 C197.27 134.8, 257.46 61.61, 311.41 0.4 M129.02 210.21 C183.63 142.81, 242.1 78, 311.41 0.4 M150.28 210.14 C210.68 149.62, 265.29 82.77, 332.67 0.33 M150.28 210.14 C222.76 124.91, 293.55 41.89, 332.67 0.33 M171.54 210.07 C222.74 147.13, 281.56 81.83, 351.96 2.53 M171.54 210.07 C226.75 145.73, 283.81 76.81, 351.96 2.53 M192.8 210 C248.65 145.86, 301.52 86.13, 367.32 9.25 M192.8 210 C251.72 145.39, 306.83 80.47, 367.32 9.25 M213.41 210.69 C273.93 142.35, 334.02 67.37, 374.14 25.79 M213.41 210.69 C262.94 157.35, 311.95 103.36, 374.14 25.79 M234.67 210.62 C272.65 171.92, 309.47 125.83, 375.07 49.11 M234.67 210.62 C262.87 178.11, 290.89 146.31, 375.07 49.11 M255.93 210.55 C303.54 159.44, 346.01 108.47, 375.33 73.19 M255.93 210.55 C288.27 170.3, 323.01 134.54, 375.33 73.19 M277.19 210.48 C311.81 175.18, 343.09 138.39, 375.6 97.28 M277.19 210.48 C313.4 169.84, 349.05 131.15, 375.6 97.28 M298.45 210.41 C323.31 180.4, 343.87 155.68, 375.21 122.11 M298.45 210.41 C320.87 187.4, 342.73 158.72, 375.21 122.11 M319.71 210.34 C342.41 188.64, 355.98 166.46, 375.47 146.19 M319.71 210.34 C343.92 185.5, 366.41 158.98, 375.47 146.19 M340.97 210.27 C348.07 196.42, 362.52 184.7, 375.09 171.03 M340.97 210.27 C352.4 200.1, 363.24 189.09, 375.09 171.03" stroke="#b2f2bb" stroke-width="2" fill="none"></path><path d="M32 0 C120.47 -2.3, 214.62 -4.87, 343.3 0 M32 0 C137.51 3.28, 245.07 3.11, 343.3 0 M343.3 0 C365.07 2.8, 378.79 9.81, 375.3 32 M343.3 0 C362.83 1.19, 373.05 13.57, 375.3 32 M375.3 32 C373.19 67.98, 374.86 107.78, 375.3 178.23 M375.3 32 C372.83 82.26, 372.29 132.33, 375.3 178.23 M375.3 178.23 C378.21 203.28, 368.27 210.19, 343.3 210.23 M375.3 178.23 C373.99 200.73, 368.21 209.9, 343.3 210.23 M343.3 210.23 C266.71 205.31, 194.43 208.78, 32 210.23 M343.3 210.23 C227.65 212.13, 113.23 212.7, 32 210.23 M32 210.23 C14.09 213.17, 2.36 199.48, 0 178.23 M32 210.23 C9.31 211.05, 4.28 195.39, 0 178.23 M0 178.23 C4.77 141.51, 2.83 103.56, 0 32 M0 178.23 C-1.27 131.51, -2.62 80.3, 0 32 M0 32 C0.04 8.42, 9.37 3.39, 32 0 M0 32 C-0.9 11.53, 10.08 -1.79, 32 0" stroke="#1e1e1e" stroke-width="4" fill="none"></path></g><g stroke-linecap="round" transform="translate(3166.4375681570314 1448.7315521628493) rotate(0 190.76335877862584 105.89312977099235)"><path d="M7.86 8.16 C7.86 8.16, 7.86 8.16, 7.86 8.16 M7.86 8.16 C7.86 8.16, 7.86 8.16, 7.86 8.16 M0.91 40.54 C12.58 29.78, 18.74 17.23, 36.34 -0.21 M0.91 40.54 C13.03 25.79, 28.48 10.25, 36.34 -0.21 M1.18 64.62 C21.69 36.39, 45.78 15.93, 57.6 -0.28 M1.18 64.62 C20.68 44.72, 38.52 23.25, 57.6 -0.28 M0.79 89.46 C28.31 66.97, 51.3 36.05, 78.2 0.41 M0.79 89.46 C27.42 60.77, 53 33.01, 78.2 0.41 M1.05 113.54 C28.89 80.15, 59.63 48.79, 99.46 0.34 M1.05 113.54 C25.75 85.67, 47.33 58.34, 99.46 0.34 M0.66 138.38 C37.97 88.57, 86.18 38, 120.72 0.27 M0.66 138.38 C35.37 98.86, 67.67 60.25, 120.72 0.27 M0.93 162.46 C49.78 108.4, 95.32 59.27, 141.98 0.2 M0.93 162.46 C40.47 116.13, 83.9 68.67, 141.98 0.2 M1.2 186.54 C39.36 144.27, 78.73 95.37, 163.24 0.13 M1.2 186.54 C51.98 129.89, 100.23 76.18, 163.24 0.13 M8.68 202.32 C58.48 140.98, 114.23 81.99, 184.5 0.06 M8.68 202.32 C64.92 137.62, 120.14 72.32, 184.5 0.06 M23.38 209.8 C72.07 152.06, 125.16 97.54, 205.76 -0.01 M23.38 209.8 C81.82 143.63, 141.27 76.12, 205.76 -0.01 M42.67 212 C88.46 162.47, 127.36 117.72, 227.02 -0.08 M42.67 212 C85.5 162.99, 128.35 114.7, 227.02 -0.08 M63.93 211.93 C119.41 157.18, 171.54 91.03, 248.28 -0.15 M63.93 211.93 C111.41 153.03, 161.46 94.92, 248.28 -0.15 M85.19 211.86 C124.83 164.05, 169.39 114.35, 269.54 -0.22 M85.19 211.86 C131.93 156.6, 176.6 105.12, 269.54 -0.22 M106.45 211.79 C153.9 157.15, 200.26 105.43, 290.8 -0.28 M106.45 211.79 C145.67 171.04, 185.54 124.19, 290.8 -0.28 M127.71 211.72 C177.3 150.43, 232.79 93.38, 311.41 0.4 M127.71 211.72 C186.6 147.44, 244.09 78.48, 311.41 0.4 M148.97 211.65 C192.67 157.26, 237.28 109.98, 332.67 0.33 M148.97 211.65 C215.44 132.66, 284.42 55.58, 332.67 0.33 M170.23 211.58 C223.26 153.21, 274.72 96.56, 353.27 1.02 M170.23 211.58 C220.15 149.69, 271.54 92.42, 353.27 1.02 M190.84 212.27 C236.54 160.6, 287.19 102.16, 370.6 5.48 M190.84 212.27 C246.21 145.06, 305.82 77.89, 370.6 5.48 M212.1 212.2 C257.97 154.1, 307.93 97.17, 379.39 19.75 M212.1 212.2 C257.21 163.31, 298.63 114.34, 379.39 19.75 M233.36 212.13 C267.84 169.79, 296.39 135.25, 381.63 41.56 M233.36 212.13 C262.07 178.77, 294.5 140.68, 381.63 41.56 M254.62 212.06 C296.95 162.09, 337.86 112.99, 381.89 65.65 M254.62 212.06 C298.42 166.6, 338.62 118.38, 381.89 65.65 M275.88 211.99 C319.85 163.09, 359.98 111.55, 381.5 90.48 M275.88 211.99 C309 176.18, 339.74 140.52, 381.5 90.48 M297.14 211.92 C316.25 188.28, 342.71 162.08, 381.77 114.56 M297.14 211.92 C314.74 188.41, 333.74 168.52, 381.77 114.56 M318.4 211.85 C333.54 190.73, 360.14 162.7, 382.04 138.65 M318.4 211.85 C336.23 191.02, 351.32 174.63, 382.04 138.65 M339.66 211.78 C352.63 197.65, 360.94 186.87, 381.65 163.48 M339.66 211.78 C349.65 202.83, 356.31 193.05, 381.65 163.48 M362.89 209.45 C368.74 201.06, 369.19 201.23, 379.29 190.58 M362.89 209.45 C366.92 204.73, 373.94 200.75, 379.29 190.58" stroke="#b2f2bb" stroke-width="2" fill="none"></path><path d="M32 0 C149.46 -2.85, 264.4 -3.6, 349.53 0 M32 0 C102.63 0.58, 170.86 2.09, 349.53 0 M349.53 0 C374.35 -0.86, 379.96 11.7, 381.53 32 M349.53 0 C368.61 2.9, 379.08 11.33, 381.53 32 M381.53 32 C378.8 79.35, 381.24 117.31, 381.53 179.79 M381.53 32 C378.83 67.08, 381.7 101.91, 381.53 179.79 M381.53 179.79 C385.16 201.08, 369.72 212.8, 349.53 211.79 M381.53 179.79 C385.11 200.79, 368.07 209.46, 349.53 211.79 M349.53 211.79 C272.9 209.25, 197.82 208.27, 32 211.79 M349.53 211.79 C234.77 209.33, 122.64 210.52, 32 211.79 M32 211.79 C13.03 211.7, -1.18 201.84, 0 179.79 M32 211.79 C14.95 207.62, -1.73 197.78, 0 179.79 M0 179.79 C-1.25 142.34, -0.69 104.45, 0 32 M0 179.79 C-2.01 123.5, -2.03 67.89, 0 32 M0 32 C-1.29 14.05, 9.88 0.75, 32 0 M0 32 C-0.59 8.88, 10.47 -1.89, 32 0" stroke="#1e1e1e" stroke-width="4" fill="none"></path></g><g transform="translate(3175.297619047616 1500.5516061095382) rotate(0 156.77796173095703 40.649769464314744)"><text x="0" y="56.974716881183525" font-family="Virgil, Segoe UI Emoji" font-size="65.03963114290357px" fill="#1e1e1e" text-anchor="start" style="white-space: pre;" direction="ltr" dominant-baseline="alphabetic">Clickhouse</text></g><g stroke-linecap="round" transform="translate(2934.964285714283 696.6666666666665) rotate(0 386.6666666666665 539.9999999999998)"><path d="M32 0 C254.75 -0.29, 476 0.52, 741.33 0 M741.33 0 C762.85 0.05, 771.71 11.89, 773.33 32 M773.33 32 C770.83 355.37, 770.38 678.74, 773.33 1048 M773.33 1048 C774.97 1069.22, 762.28 1080.46, 741.33 1080 M741.33 1080 C585.91 1078.3, 430.52 1077.22, 32 1080 M32 1080 C12.11 1079.2, 1.36 1069.99, 0 1048 M0 1048 C-0.07 653.43, -0.27 258.17, 0 32 M0 32 C1.06 10.24, 12.16 0.74, 32 0" stroke="#1e1e1e" stroke-width="4.5" fill="none" stroke-dasharray="8 12"></path></g><g stroke-linecap="round"><g transform="translate(439.1398303187402 1169.618805323861) rotate(0 200.7572760286588 -230.7954002382613)"><path d="M-1.04 0.5 C66.24 -76.71, 335.61 -385.06, 402.56 -462.09 M0.61 -0.28 C67.91 -76.82, 335 -384.08, 402.06 -460.76" stroke="#1e1e1e" stroke-width="4" fill="none"></path></g><g transform="translate(439.1398303187402 1169.618805323861) rotate(0 200.7572760286588 -230.7954002382613)"><path d="M393.07 -437.43 C395.53 -440.7, 395.88 -448.66, 402.06 -460.76 M393.07 -437.43 C395.19 -444.36, 398.61 -451.39, 402.06 -460.76" stroke="#1e1e1e" stroke-width="4" fill="none"></path></g><g transform="translate(439.1398303187402 1169.618805323861) rotate(0 200.7572760286588 -230.7954002382613)"><path d="M380.18 -448.67 C385.4 -449.52, 388.4 -455.16, 402.06 -460.76 M380.18 -448.67 C386.14 -452.11, 393.45 -455.76, 402.06 -460.76" stroke="#1e1e1e" stroke-width="4" fill="none"></path></g></g><mask></mask><g stroke-linecap="round"><g transform="translate(480.7841332185135 1219.1437134267067) rotate(0 125.48716382525492 20.273528602205488)"><path d="M1.01 0.93 C42.91 7.45, 209.31 32.47, 250.89 38.55 M0.09 0.37 C41.86 7.16, 208.33 33.88, 249.89 40.18" stroke="#1e1e1e" stroke-width="4" fill="none"></path></g><g transform="translate(480.7841332185135 1219.1437134267067) rotate(0 125.48716382525492 20.273528602205488)"><path d="M225.35 44.99 C233.3 43.37, 238.44 41.41, 249.89 40.18 M225.35 44.99 C229.86 43.31, 236 42.29, 249.89 40.18" stroke="#1e1e1e" stroke-width="4" fill="none"></path></g><g transform="translate(480.7841332185135 1219.1437134267067) rotate(0 125.48716382525492 20.273528602205488)"><path d="M228 28.09 C235.18 30.89, 239.62 33.33, 249.89 40.18 M228 28.09 C231.88 30.08, 237.45 32.73, 249.89 40.18" stroke="#1e1e1e" stroke-width="4" fill="none"></path></g></g><mask></mask><g stroke-linecap="round"><g transform="translate(400.65046877474606 1289.071974680933) rotate(0 337.3161667234157 279.8570326070595)"><path d="M-0.18 -0.37 C112.51 93.3, 563.69 467.94, 676.36 561.32 M-1.73 -1.61 C110.74 91.76, 561.89 465.76, 675.23 559.51" stroke="#1e1e1e" stroke-width="4" fill="none"></path></g><g transform="translate(400.65046877474606 1289.071974680933) rotate(0 337.3161667234157 279.8570326070595)"><path d="M651.68 551.11 C658.6 553.26, 667.77 555.11, 675.23 559.51 M651.68 551.11 C657.01 552.74, 663.41 554.41, 675.23 559.51" stroke="#1e1e1e" stroke-width="4" fill="none"></path></g><g transform="translate(400.65046877474606 1289.071974680933) rotate(0 337.3161667234157 279.8570326070595)"><path d="M662.59 537.94 C665.92 544.32, 671.58 550.4, 675.23 559.51 M662.59 537.94 C665.37 542.68, 669.22 547.44, 675.23 559.51" stroke="#1e1e1e" stroke-width="4" fill="none"></path></g></g><mask></mask><g transform="translate(1508.297619047617 10) rotate(0 219.9146728515625 70.14381342960712)"><text x="0" y="98.31356890293736" font-family="Virgil, Segoe UI Emoji" font-size="112.23010148737141px" fill="#1e1e1e" text-anchor="start" style="white-space: pre;" direction="ltr" dominant-baseline="alphabetic">Services</text></g><g transform="translate(3046.674300057544 542.6373254294781) rotate(0 257.90301513671875 58.75324400006437)"><text x="0" y="82.34854679049019" font-family="Virgil, Segoe UI Emoji" font-size="94.00519040010296px" fill="#1e1e1e" text-anchor="start" style="white-space: pre;" direction="ltr" dominant-baseline="alphabetic">Databases</text></g></svg>